<svg xmlns="http://www.w3.org/2000/svg" xmlns:xlink="http://www.w3.org/1999/xlink" width="14" height="14" viewBox="0 0 14 14">
    <defs>
        <path id="prefix__a" d="M6 .4c3.093 0 5.6 2.507 5.6 5.6 0 3.093-2.507 5.6-5.6 5.6C2.907 11.6.4 9.093.4 6 .4 2.907 2.907.4 6 .4zm.009 9.188c-.121 0-.219.097-.219.218v.875c0 .121.098.219.219.219.12 0 .218-.098.218-.219v-.875c0-.12-.097-.218-.218-.218zM3.785 4.022c-.064-.065-.186-.048-.271.038-.085.085-.103.207-.038.271L5.372 6.16c-.019.06-.028.124-.028.19 0 .362.294.656.656.656.286 0 .529-.182.619-.437h1.579c.09 0 .165-.098.165-.219 0-.12-.074-.219-.165-.219h-1.58c-.09-.255-.332-.437-.618-.437-.136 0-.262.041-.367.112zM2.194 6.13h-.875c-.121 0-.219.098-.219.219 0 .12.098.219.219.219h.875c.12 0 .219-.098.219-.219 0-.12-.098-.219-.22-.219zm8.487 0h-.875c-.12 0-.218.098-.218.219 0 .12.097.219.218.219h.875c.121 0 .219-.098.219-.219 0-.12-.098-.219-.219-.219zM6.01 1.1c-.121 0-.219.098-.219.219v.875c0 .12.098.219.219.219.12 0 .218-.098.218-.22V1.32c0-.121-.097-.219-.218-.219z"/>
    </defs>
    <g fill="none" fill-rule="evenodd" transform="translate(1 1)">
        <mask id="prefix__b" fill="#fff">
            <use xlink:href="#prefix__a"/>
        </mask>
        <use fill="#000" fill-rule="nonzero" xlink:href="#prefix__a"/>
        <g fill="#E6E6E6" mask="url(#prefix__b)">
            <path d="M0 0H14V14H0z" transform="translate(-1 -1)"/>
        </g>
    </g>
</svg>
