<svg xmlns="http://www.w3.org/2000/svg" xmlns:xlink="http://www.w3.org/1999/xlink" width="16" height="16" viewBox="0 0 16 16">
    <defs>
        <path id="prefix__a" d="M5.722 8.493c.132-.029.277.015.382.102.553.45 1.212.682 1.897.682s1.343-.232 1.897-.682c.105-.087.25-.116.382-.102 1.054.16 1.989.813 2.595 1.8.118.189.224.392.303.61.04.087.026.188-.04.275-.105.203-.224.392-.355.58-.185.276-.396.523-.606.755-.185.204-.396.407-.606.58-1.041.857-2.292 1.307-3.583 1.307-1.291 0-2.543-.45-3.583-1.306-.211-.189-.422-.377-.606-.58-.224-.233-.422-.48-.606-.755-.119-.174-.25-.378-.356-.58-.04-.088-.053-.19-.013-.277.079-.203.184-.42.303-.609.593-.987 1.541-1.64 2.595-1.8zM8 1.6c1.66 0 3.016 1.495 3.016 3.323 0 1.829-1.356 3.324-3.016 3.324S4.984 6.752 4.984 4.923c0-1.828 1.357-3.323 3.017-3.323z"/>
    </defs>
    <g fill="none" fill-rule="evenodd">
        <circle cx="8" cy="8" r="8" fill="#121212"/>
        <mask id="prefix__b" fill="#fff">
            <use xlink:href="#prefix__a"/>
        </mask>
        <use fill="#000" fill-rule="nonzero" xlink:href="#prefix__a"/>
        <g fill="#E6E6E6" mask="url(#prefix__b)">
            <path d="M0 0H16V16H0z"/>
        </g>
    </g>
</svg>
