<svg xmlns="http://www.w3.org/2000/svg" xmlns:xlink="http://www.w3.org/1999/xlink" width="16" height="16" viewBox="0 0 16 16">
    <defs>
        <path id="prefix__a" d="M7 11.73c.23 0 .417.187.417.418v.835c0 .23-.186.417-.417.417-.23 0-.417-.187-.417-.417v-.835c0-.23.186-.418.417-.418zm-2.935-.48c.115-.2.37-.269.57-.153.2.115.268.37.152.57l-.417.723c-.115.2-.37.268-.57.152-.2-.115-.268-.37-.153-.57zm5.3-.153c.2-.116.455-.047.57.152l.418.723c.115.2.047.455-.153.57-.2.116-.455.048-.57-.152l-.418-.723c-.115-.2-.046-.455.153-.57zM7 3.104c2.148 0 3.896 1.748 3.896 3.896 0 2.148-1.748 3.896-3.896 3.896-2.148 0-3.896-1.748-3.896-3.896 0-2.148 1.748-3.896 3.896-3.896zM2.333 9.213c.2-.116.455-.047.57.152.116.2.047.455-.152.57l-.723.418c-.2.115-.455.047-.57-.153-.116-.2-.047-.455.152-.57zm8.764.152c.115-.2.37-.268.57-.152l.723.417c.2.115.268.37.152.57-.115.2-.37.268-.57.153l-.723-.418c-.2-.115-.268-.37-.152-.57zM1.852 6.583c.23 0 .418.186.418.417 0 .23-.187.417-.418.417h-.835C.787 7.417.6 7.231.6 7c0-.23.187-.417.417-.417zm11.13 0c.231 0 .418.186.418.417 0 .23-.187.417-.417.417h-.835c-.23 0-.418-.186-.418-.417 0-.23.187-.417.418-.417zm-1.01-2.936c.2-.115.455-.046.57.153.116.2.047.455-.152.57l-.723.417c-.2.116-.455.048-.57-.152-.116-.2-.047-.455.152-.57zM1.458 3.8c.115-.2.37-.268.57-.153l.723.418c.2.115.268.37.152.57-.115.2-.37.268-.57.152L1.61 4.37c-.2-.115-.268-.37-.153-.57zM9.63 1.61c.115-.2.37-.268.57-.153.2.116.268.371.153.57l-.418.724c-.115.2-.37.268-.57.152-.2-.115-.268-.37-.152-.57zM3.8 1.457c.2-.115.455-.046.57.153l.417.723c.116.2.047.455-.152.57-.2.116-.455.048-.57-.152l-.418-.723c-.115-.2-.047-.455.153-.57zM7 .6c.23 0 .417.187.417.417v.835c0 .23-.186.418-.417.418-.23 0-.417-.187-.417-.418v-.835C6.583.787 6.769.6 7 .6z"/>
    </defs>
    <g fill="none" fill-rule="evenodd" transform="translate(1 1)">
        <mask id="prefix__b" fill="#fff">
            <use xlink:href="#prefix__a"/>
        </mask>
        <use fill="#000" fill-rule="nonzero" xlink:href="#prefix__a"/>
        <g fill="#E6E6E6" mask="url(#prefix__b)">
            <path d="M0 0H16V16H0z" transform="translate(-1 -1)"/>
        </g>
    </g>
</svg>
